<svg xmlns="http://www.w3.org/2000/svg" viewBox="0 0 1600 900" shape-rendering="crispEdges">
  <rect width="1600" height="900" fill="#05060a"/>
  <rect y="40" width="1600" height="520" fill="#0a0f18"/>
  <rect y="560" width="1600" height="340" fill="#07090d"/>

  <rect x="80" y="80" width="20" height="20" fill="#67d7ff"/>
  <rect x="200" y="140" width="20" height="20" fill="#ff5f8f"/>
  <rect x="300" y="90" width="20" height="20" fill="#67d7ff"/>
  <rect x="520" y="120" width="20" height="20" fill="#d3e96a"/>
  <rect x="620" y="60" width="20" height="20" fill="#67d7ff"/>
  <rect x="760" y="150" width="20" height="20" fill="#ff5f8f"/>
  <rect x="920" y="80" width="20" height="20" fill="#67d7ff"/>
  <rect x="1080" y="130" width="20" height="20" fill="#d3e96a"/>
  <rect x="1240" y="70" width="20" height="20" fill="#67d7ff"/>
  <rect x="1420" y="110" width="20" height="20" fill="#ff5f8f"/>

  <rect x="1140" y="120" width="180" height="180" fill="#ff5f8f"/>
  <rect x="1160" y="140" width="140" height="140" fill="#05060a"/>
  <rect x="1180" y="160" width="100" height="100" fill="#67d7ff"/>
  <rect x="1200" y="180" width="60" height="60" fill="#05060a"/>

  <rect x="0" y="640" width="1600" height="260" fill="#040509"/>
  <rect x="0" y="640" width="1600" height="20" fill="#0d1320"/>

  <rect x="40" y="420" width="120" height="220" fill="#0f1826"/>
  <rect x="180" y="320" width="140" height="320" fill="#0b1420"/>
  <rect x="340" y="380" width="80" height="260" fill="#121e2d"/>
  <rect x="440" y="280" width="160" height="360" fill="#0d1724"/>
  <rect x="620" y="220" width="120" height="420" fill="#101927"/>
  <rect x="760" y="340" width="100" height="300" fill="#0b1420"/>
  <rect x="880" y="240" width="180" height="400" fill="#111b2a"/>
  <rect x="1080" y="320" width="120" height="320" fill="#0d1724"/>
  <rect x="1220" y="260" width="140" height="380" fill="#132032"/>
  <rect x="1380" y="360" width="100" height="280" fill="#0b1420"/>
  <rect x="1500" y="300" width="80" height="340" fill="#101927"/>

  <rect x="80" y="460" width="20" height="20" fill="#67d7ff"/>
  <rect x="120" y="500" width="20" height="20" fill="#ff5f8f"/>
  <rect x="200" y="360" width="20" height="20" fill="#67d7ff"/>
  <rect x="240" y="400" width="20" height="20" fill="#d3e96a"/>
  <rect x="280" y="440" width="20" height="20" fill="#67d7ff"/>
  <rect x="360" y="420" width="20" height="20" fill="#ff5f8f"/>
  <rect x="480" y="320" width="20" height="20" fill="#67d7ff"/>
  <rect x="520" y="360" width="20" height="20" fill="#d3e96a"/>
  <rect x="560" y="400" width="20" height="20" fill="#ff5f8f"/>
  <rect x="660" y="260" width="20" height="20" fill="#67d7ff"/>
  <rect x="700" y="300" width="20" height="20" fill="#d3e96a"/>
  <rect x="800" y="380" width="20" height="20" fill="#67d7ff"/>
  <rect x="920" y="280" width="20" height="20" fill="#ff5f8f"/>
  <rect x="960" y="320" width="20" height="20" fill="#67d7ff"/>
  <rect x="1000" y="360" width="20" height="20" fill="#d3e96a"/>
  <rect x="1120" y="360" width="20" height="20" fill="#ff5f8f"/>
  <rect x="1260" y="300" width="20" height="20" fill="#67d7ff"/>
  <rect x="1300" y="340" width="20" height="20" fill="#d3e96a"/>
  <rect x="1440" y="400" width="20" height="20" fill="#67d7ff"/>
  <rect x="1520" y="340" width="20" height="20" fill="#ff5f8f"/>

  <rect x="210" y="520" width="80" height="20" fill="#ff5f8f"/>
  <rect x="230" y="540" width="40" height="20" fill="#67d7ff"/>
  <rect x="490" y="460" width="60" height="20" fill="#67d7ff"/>
  <rect x="510" y="480" width="20" height="20" fill="#d3e96a"/>
  <rect x="930" y="500" width="80" height="20" fill="#67d7ff"/>
  <rect x="950" y="520" width="40" height="20" fill="#ff5f8f"/>
  <rect x="1270" y="460" width="60" height="20" fill="#d3e96a"/>
  <rect x="1290" y="480" width="20" height="20" fill="#67d7ff"/>

  <rect x="0" y="680" width="1600" height="20" fill="#0f1830"/>
  <rect x="0" y="720" width="1600" height="20" fill="#0a1020"/>
  <rect x="0" y="760" width="1600" height="20" fill="#0f1830"/>
  <rect x="0" y="800" width="1600" height="20" fill="#0a1020"/>
  <rect x="0" y="840" width="1600" height="20" fill="#0f1830"/>

  <rect x="0" y="660" width="1600" height="2" fill="#67d7ff"/>
  <rect x="0" y="700" width="1600" height="2" fill="#67d7ff"/>
  <rect x="0" y="740" width="1600" height="2" fill="#67d7ff"/>
  <rect x="0" y="780" width="1600" height="2" fill="#67d7ff"/>
  <rect x="0" y="820" width="1600" height="2" fill="#67d7ff"/>

  <rect x="140" y="660" width="4" height="240" fill="#67d7ff"/>
  <rect x="300" y="660" width="4" height="240" fill="#67d7ff"/>
  <rect x="460" y="660" width="4" height="240" fill="#67d7ff"/>
  <rect x="620" y="660" width="4" height="240" fill="#67d7ff"/>
  <rect x="780" y="660" width="4" height="240" fill="#67d7ff"/>
  <rect x="940" y="660" width="4" height="240" fill="#67d7ff"/>
  <rect x="1100" y="660" width="4" height="240" fill="#67d7ff"/>
  <rect x="1260" y="660" width="4" height="240" fill="#67d7ff"/>
  <rect x="1420" y="660" width="4" height="240" fill="#67d7ff"/>

  <rect y="638" width="1600" height="2" fill="#ff5f8f"/>
  <rect y="898" width="1600" height="2" fill="#67d7ff"/>
</svg>
